<svg width="190" height="32" viewBox="0 0 190 32" fill="none" xmlns="http://www.w3.org/2000/svg">
<path d="M32.7992 0H0.799194V32H32.7992V0Z" fill="black"/>
<path d="M23.1191 9.17334L16.8919 15.4006H16.7064L10.4792 9.17334H6.87915V23.5733H10.4792V16.3733L16.6128 22.5067H16.9855L23.1191 16.3733V23.5733H26.7191V9.17334H23.1191Z" fill="white"/>
<path d="M49.9982 7.946C51.6849 7.946 53.1645 8.27567 54.4372 8.935C55.7252 9.59433 56.7142 10.5373 57.4042 11.764C58.1095 12.9753 58.4622 14.386 58.4622 15.996C58.4622 17.606 58.1095 19.0167 57.4042 20.228C56.7142 21.424 55.7252 22.3517 54.4372 23.011C53.1645 23.6703 51.6849 24 49.9982 24H44.3862V7.946H49.9982ZM49.8832 21.263C51.5699 21.263 52.8732 20.803 53.7932 19.883C54.7132 18.963 55.1732 17.6673 55.1732 15.996C55.1732 14.3247 54.7132 13.0213 53.7932 12.086C52.8732 11.1353 51.5699 10.66 49.8832 10.66H47.6062V21.263H49.8832ZM64.0925 10.545V14.57H69.4975V17.123H64.0925V21.378H70.1875V24H60.8725V7.923H70.1875V10.545H64.0925ZM78.6567 24.161C77.5374 24.161 76.5254 23.9693 75.6207 23.586C74.7314 23.2027 74.0261 22.6507 73.5047 21.93C72.9834 21.2093 72.7151 20.3583 72.6997 19.377H76.1497C76.1957 20.0363 76.4257 20.5577 76.8397 20.941C77.2691 21.3243 77.8517 21.516 78.5877 21.516C79.3391 21.516 79.9294 21.3397 80.3587 20.987C80.7881 20.619 81.0027 20.1437 81.0027 19.561C81.0027 19.0857 80.8571 18.6947 80.5657 18.388C80.2744 18.0813 79.9064 17.8437 79.4617 17.675C79.0324 17.491 78.4344 17.2917 77.6677 17.077C76.6251 16.7703 75.7741 16.4713 75.1147 16.18C74.4707 15.8733 73.9111 15.421 73.4357 14.823C72.9757 14.2097 72.7457 13.397 72.7457 12.385C72.7457 11.4343 72.9834 10.6063 73.4587 9.901C73.9341 9.19567 74.6011 8.659 75.4597 8.291C76.3184 7.90767 77.2997 7.716 78.4037 7.716C80.0597 7.716 81.4014 8.12233 82.4287 8.935C83.4714 9.73233 84.0464 10.8517 84.1537 12.293H80.6117C80.5811 11.741 80.3434 11.2887 79.8987 10.936C79.4694 10.568 78.8944 10.384 78.1737 10.384C77.5451 10.384 77.0391 10.545 76.6557 10.867C76.2877 11.189 76.1037 11.6567 76.1037 12.27C76.1037 12.6993 76.2417 13.0597 76.5177 13.351C76.8091 13.627 77.1617 13.857 77.5757 14.041C78.0051 14.2097 78.6031 14.409 79.3697 14.639C80.4124 14.9457 81.2634 15.2523 81.9227 15.559C82.5821 15.8657 83.1494 16.3257 83.6247 16.939C84.1001 17.5523 84.3377 18.3573 84.3377 19.354C84.3377 20.2127 84.1154 21.01 83.6707 21.746C83.2261 22.482 82.5744 23.0723 81.7157 23.517C80.8571 23.9463 79.8374 24.161 78.6567 24.161ZM90.3494 7.946V24H87.1294V7.946H90.3494ZM104.709 12.776C104.341 12.1013 103.835 11.5877 103.191 11.235C102.547 10.8823 101.795 10.706 100.937 10.706C99.9861 10.706 99.1427 10.9207 98.4067 11.35C97.6707 11.7793 97.0957 12.3927 96.6817 13.19C96.2677 13.9873 96.0607 14.9073 96.0607 15.95C96.0607 17.0233 96.2677 17.9587 96.6817 18.756C97.1111 19.5533 97.7014 20.1667 98.4527 20.596C99.2041 21.0253 100.078 21.24 101.075 21.24C102.301 21.24 103.306 20.918 104.088 20.274C104.87 19.6147 105.383 18.7023 105.629 17.537H100.109V15.076H108.803V17.882C108.588 19.0013 108.128 20.0363 107.423 20.987C106.717 21.9377 105.805 22.7043 104.686 23.287C103.582 23.8543 102.34 24.138 100.96 24.138C99.4111 24.138 98.0081 23.793 96.7507 23.103C95.5087 22.3977 94.5274 21.424 93.8067 20.182C93.1014 18.94 92.7487 17.5293 92.7487 15.95C92.7487 14.3707 93.1014 12.96 93.8067 11.718C94.5274 10.4607 95.5087 9.487 96.7507 8.797C98.0081 8.09167 99.4034 7.739 100.937 7.739C102.746 7.739 104.318 8.18367 105.652 9.073C106.986 9.947 107.906 11.1813 108.412 12.776H104.709ZM124.916 24H121.696L114.405 12.983V24H111.185V7.923H114.405L121.696 18.963V7.923H124.916V24Z" fill="black"/>
<path d="M133.249 9.234V15.237H139.344V16.571H133.249V22.666H140.034V24H131.639V7.9H140.034V9.234H133.249ZM141.551 17.698C141.551 16.41 141.811 15.283 142.333 14.317C142.854 13.3357 143.567 12.5843 144.472 12.063C145.392 11.5263 146.427 11.258 147.577 11.258C148.681 11.258 149.677 11.5263 150.567 12.063C151.456 12.5997 152.108 13.2973 152.522 14.156V6.98H154.132V24H152.522V21.194C152.138 22.068 151.51 22.7887 150.636 23.356C149.762 23.908 148.734 24.184 147.554 24.184C146.404 24.184 145.369 23.9157 144.449 23.379C143.544 22.8423 142.831 22.0833 142.31 21.102C141.804 20.1207 141.551 18.986 141.551 17.698ZM152.522 17.721C152.522 16.709 152.315 15.8197 151.901 15.053C151.487 14.2863 150.919 13.696 150.199 13.282C149.493 12.868 148.711 12.661 147.853 12.661C146.963 12.661 146.166 12.8603 145.461 13.259C144.755 13.6577 144.196 14.2403 143.782 15.007C143.383 15.7583 143.184 16.6553 143.184 17.698C143.184 18.7253 143.383 19.63 143.782 20.412C144.196 21.1787 144.755 21.769 145.461 22.183C146.166 22.5817 146.963 22.781 147.853 22.781C148.711 22.781 149.493 22.574 150.199 22.16C150.919 21.746 151.487 21.1557 151.901 20.389C152.315 19.6223 152.522 18.733 152.522 17.721ZM157.692 9.073C157.37 9.073 157.094 8.958 156.864 8.728C156.634 8.498 156.519 8.21433 156.519 7.877C156.519 7.53967 156.634 7.26367 156.864 7.049C157.094 6.819 157.37 6.704 157.692 6.704C158.014 6.704 158.29 6.819 158.52 7.049C158.75 7.26367 158.865 7.53967 158.865 7.877C158.865 8.21433 158.75 8.498 158.52 8.728C158.29 8.958 158.014 9.073 157.692 9.073ZM158.497 11.442V24H156.887V11.442H158.497ZM163.316 12.799V20.596C163.316 21.3627 163.462 21.8917 163.753 22.183C164.044 22.4743 164.558 22.62 165.294 22.62H166.766V24H165.041C163.906 24 163.063 23.7393 162.511 23.218C161.959 22.6813 161.683 21.8073 161.683 20.596V12.799H159.935V11.442H161.683V8.291H163.316V11.442H166.766V12.799H163.316ZM173.998 24.184C172.818 24.184 171.752 23.9233 170.801 23.402C169.866 22.8653 169.122 22.114 168.57 21.148C168.034 20.1667 167.765 19.0243 167.765 17.721C167.765 16.4177 168.041 15.283 168.593 14.317C169.145 13.3357 169.897 12.5843 170.847 12.063C171.798 11.5263 172.864 11.258 174.044 11.258C175.225 11.258 176.291 11.5263 177.241 12.063C178.207 12.5843 178.959 13.3357 179.495 14.317C180.047 15.283 180.323 16.4177 180.323 17.721C180.323 19.009 180.047 20.1437 179.495 21.125C178.943 22.1063 178.184 22.8653 177.218 23.402C176.252 23.9233 175.179 24.184 173.998 24.184ZM173.998 22.781C174.826 22.781 175.593 22.597 176.298 22.229C177.004 21.8457 177.571 21.2783 178 20.527C178.445 19.7603 178.667 18.825 178.667 17.721C178.667 16.617 178.453 15.6893 178.023 14.938C177.594 14.1713 177.027 13.604 176.321 13.236C175.616 12.8527 174.849 12.661 174.021 12.661C173.193 12.661 172.427 12.8527 171.721 13.236C171.016 13.604 170.449 14.1713 170.019 14.938C169.605 15.6893 169.398 16.617 169.398 17.721C169.398 18.825 169.605 19.7603 170.019 20.527C170.449 21.2783 171.008 21.8457 171.698 22.229C172.404 22.597 173.17 22.781 173.998 22.781ZM183.948 13.673C184.301 12.891 184.837 12.2853 185.558 11.856C186.294 11.4267 187.191 11.212 188.249 11.212V12.891H187.812C186.647 12.891 185.711 13.2053 185.006 13.834C184.301 14.4627 183.948 15.513 183.948 16.985V24H182.338V11.442H183.948V13.673Z" fill="black"/>
</svg>
